<svg width="123" height="16" viewBox="0 0 123 16" fill="none" xmlns="http://www.w3.org/2000/svg">
<g clip-path="url(#clip0_1628_22159)">
<path fill-rule="evenodd" clip-rule="evenodd" d="M10.8112 10.9065C10.1112 11.4065 9.31118 11.7065 8.01118 11.6065C5.71118 11.5065 4.41118 9.80655 4.41118 7.80655C4.41118 5.80655 5.81118 4.00655 8.01118 4.00655C9.31118 4.00655 10.0112 4.20655 10.7112 4.70655L13.0112 1.70655C11.4928 0.546751 9.62085 -0.0536966 7.71118 0.00654589C6.67986 -0.0368604 5.65086 0.135978 4.69032 0.513955C3.72978 0.891931 2.85894 1.46668 2.13376 2.20128C1.40859 2.93587 0.845117 3.81405 0.479566 4.77939C0.114015 5.74473 -0.045533 6.77587 0.0111765 7.80655C0.0111765 12.2065 3.21118 15.4065 7.71118 15.4065C9.71118 15.4065 11.6112 15.0065 12.9112 13.9065L10.8112 10.9065ZM69.2112 7.70655C69.2112 5.50655 67.3112 3.70655 63.8112 3.70655C62.0112 3.70655 60.7112 4.00655 59.9112 4.30655L60.6112 7.20655C64.5112 6.00655 65.8112 7.30655 65.6112 8.90655C65.6112 8.90655 64.1112 8.10655 62.4112 8.10655C60.0112 8.10655 58.6112 9.80655 58.6112 11.7065C58.6112 14.1065 60.1112 15.3065 62.4112 15.3065C63.0238 15.3183 63.631 15.1892 64.1858 14.9291C64.7407 14.669 65.2283 14.285 65.6112 13.8065V15.0065H69.2112V7.80655V7.70655ZM63.6112 12.7065C62.7112 12.7065 62.3112 12.2065 62.3112 11.4065C62.3112 10.7065 62.9112 10.2065 63.6112 10.2065C64.5112 10.2065 65.0112 10.3065 65.5112 10.5065H65.6112C65.6112 11.5065 65.0112 12.7065 63.6112 12.7065ZM13.3112 9.60655C13.3112 6.20655 15.9112 3.80655 19.3112 3.80655C22.7112 3.80655 25.3112 6.20655 25.3112 9.60655C25.3112 13.0065 22.7112 15.4065 19.3112 15.4065C15.9112 15.4065 13.3112 13.0065 13.3112 9.60655ZM17.1112 9.60655C17.1112 11.1065 18.0112 12.1065 19.3112 12.1065C20.6112 12.1065 21.5112 11.0065 21.5112 9.60655C21.5112 8.20655 20.6112 7.20655 19.3112 7.20655C18.0112 7.20655 17.1112 8.20655 17.1112 9.60655ZM33.3112 3.80655C32.0112 3.80655 30.8112 4.50655 30.0112 5.50655V4.10655H26.5112V15.1065H30.0112V8.70655C30.0112 8.2822 30.1797 7.87523 30.4798 7.57517C30.7799 7.27512 31.1868 7.10655 31.6112 7.10655C32.0355 7.10655 32.4425 7.27512 32.7425 7.57517C33.0426 7.87523 33.2112 8.2822 33.2112 8.70655V15.1065H36.8112V7.30655C36.8112 5.30655 35.5112 3.80655 33.3112 3.80655ZM53.3112 10.4065C53.3112 11.4065 54.0112 12.1065 55.3112 12.1065C55.8112 12.1065 56.3112 11.9065 56.8112 11.7065L57.8112 14.5065C57.1112 14.9065 55.7112 15.5065 54.1112 15.5065C51.4112 15.5065 49.8112 14.1065 49.8112 12.2065V1.20655H53.3112V4.20655H56.7112L56.5112 7.20655H53.3112V10.4065ZM58.3112 14.1065V14.2065V14.1065ZM39.3112 11.8065L38.0112 13.9065C39.5112 14.9065 41.3112 15.5065 43.3112 15.5065C46.3112 15.5065 48.0112 14.0065 48.0112 11.6065C48.0112 9.30655 46.4112 8.60655 43.7112 7.80655C42.7112 7.50655 42.4112 7.20655 42.4112 6.80655C42.4449 6.66033 42.519 6.52654 42.6251 6.42044C42.7312 6.31435 42.865 6.24023 43.0112 6.20655C44.0112 6.00655 45.4112 6.50655 46.6112 7.20655L47.8112 5.10655C46.5112 4.30655 44.8112 3.70655 43.1112 3.70655C40.3112 3.70655 38.4112 5.20655 38.4112 7.70655C38.4112 9.90655 40.1112 10.7065 42.8112 11.4065C43.8112 11.7065 44.0112 12.1065 44.0112 12.3065C44.0112 12.5065 43.8112 12.8065 43.4112 12.9065C41.93 12.9943 40.4592 12.6091 39.2112 11.8065H39.3112Z" fill="#0078D2"/>
<path style="mix-blend-mode:overlay" fill-rule="evenodd" clip-rule="evenodd" d="M10.8112 10.9065C10.1112 11.4065 9.31118 11.7065 8.01118 11.6065C5.71118 11.5065 4.41118 9.80655 4.41118 7.80655C4.41118 5.80655 5.81118 4.00655 8.01118 4.00655C9.31118 4.00655 10.0112 4.20655 10.7112 4.70655L13.0112 1.70655C11.4928 0.546751 9.62085 -0.0536966 7.71118 0.00654589C6.67986 -0.0368604 5.65086 0.135978 4.69032 0.513955C3.72978 0.891931 2.85894 1.46668 2.13376 2.20128C1.40859 2.93587 0.845117 3.81405 0.479566 4.77939C0.114015 5.74473 -0.045533 6.77587 0.0111765 7.80655C0.0111765 12.2065 3.21118 15.4065 7.71118 15.4065C9.71118 15.4065 11.6112 15.0065 12.9112 13.9065L10.8112 10.9065ZM69.2112 7.70655C69.2112 5.50655 67.3112 3.70655 63.8112 3.70655C62.0112 3.70655 60.7112 4.00655 59.9112 4.30655L60.6112 7.20655C64.5112 6.00655 65.8112 7.30655 65.6112 8.90655C65.6112 8.90655 64.1112 8.10655 62.4112 8.10655C60.0112 8.10655 58.6112 9.80655 58.6112 11.7065C58.6112 14.1065 60.1112 15.3065 62.4112 15.3065C63.0238 15.3183 63.631 15.1892 64.1858 14.9291C64.7407 14.669 65.2283 14.285 65.6112 13.8065V15.0065H69.2112V7.80655V7.70655ZM63.6112 12.7065C62.7112 12.7065 62.3112 12.2065 62.3112 11.4065C62.3112 10.7065 62.9112 10.2065 63.6112 10.2065C64.5112 10.2065 65.0112 10.3065 65.5112 10.5065H65.6112C65.6112 11.5065 65.0112 12.7065 63.6112 12.7065ZM13.3112 9.60655C13.3112 6.20655 15.9112 3.80655 19.3112 3.80655C22.7112 3.80655 25.3112 6.20655 25.3112 9.60655C25.3112 13.0065 22.7112 15.4065 19.3112 15.4065C15.9112 15.4065 13.3112 13.0065 13.3112 9.60655ZM17.1112 9.60655C17.1112 11.1065 18.0112 12.1065 19.3112 12.1065C20.6112 12.1065 21.5112 11.0065 21.5112 9.60655C21.5112 8.20655 20.6112 7.20655 19.3112 7.20655C18.0112 7.20655 17.1112 8.20655 17.1112 9.60655ZM33.3112 3.80655C32.0112 3.80655 30.8112 4.50655 30.0112 5.50655V4.10655H26.5112V15.1065H30.0112V8.70655C30.0112 8.2822 30.1797 7.87523 30.4798 7.57517C30.7799 7.27512 31.1868 7.10655 31.6112 7.10655C32.0355 7.10655 32.4425 7.27512 32.7425 7.57517C33.0426 7.87523 33.2112 8.2822 33.2112 8.70655V15.1065H36.8112V7.30655C36.8112 5.30655 35.5112 3.80655 33.3112 3.80655ZM53.3112 10.4065C53.3112 11.4065 54.0112 12.1065 55.3112 12.1065C55.8112 12.1065 56.3112 11.9065 56.8112 11.7065L57.8112 14.5065C57.1112 14.9065 55.7112 15.5065 54.1112 15.5065C51.4112 15.5065 49.8112 14.1065 49.8112 12.2065V1.20655H53.3112V4.20655H56.7112L56.5112 7.20655H53.3112V10.4065ZM58.3112 14.1065V14.2065V14.1065ZM39.3112 11.8065L38.0112 13.9065C39.5112 14.9065 41.3112 15.5065 43.3112 15.5065C46.3112 15.5065 48.0112 14.0065 48.0112 11.6065C48.0112 9.30655 46.4112 8.60655 43.7112 7.80655C42.7112 7.50655 42.4112 7.20655 42.4112 6.80655C42.4449 6.66033 42.519 6.52654 42.6251 6.42044C42.7312 6.31435 42.865 6.24023 43.0112 6.20655C44.0112 6.00655 45.4112 6.50655 46.6112 7.20655L47.8112 5.10655C46.5112 4.30655 44.8112 3.70655 43.1112 3.70655C40.3112 3.70655 38.4112 5.20655 38.4112 7.70655C38.4112 9.90655 40.1112 10.7065 42.8112 11.4065C43.8112 11.7065 44.0112 12.1065 44.0112 12.3065C44.0112 12.5065 43.8112 12.8065 43.4112 12.9065C41.93 12.9943 40.4592 12.6091 39.2112 11.8065H39.3112Z" fill="url(#paint0_linear_1628_22159)"/>
<path d="M81.537 15.51C84.8098 15.51 86.8019 13.5585 86.8019 11.1599C86.8019 8.9645 85.5212 7.8668 83.7527 7.11468L81.6996 6.24059C80.48 5.75273 79.2806 5.26486 79.2806 3.96389C79.2806 2.78489 80.2767 2.05309 81.8013 2.05309C83.1226 2.05309 84.1593 2.56129 85.0944 3.39472L86.3343 1.89047C85.196 0.731796 83.5495 0 81.8013 0C78.9554 0 76.882 1.76851 76.882 4.12651C76.882 6.30157 78.4879 7.43992 79.9311 8.04975L82.0046 8.94417C83.3868 9.554 84.4032 9.98088 84.4032 11.3428C84.4032 12.6031 83.3868 13.4569 81.5777 13.4569C80.1344 13.4569 78.6708 12.7658 77.5935 11.6884L76.2112 13.3146C77.5731 14.6969 79.4839 15.51 81.537 15.51Z" fill="#5C6F7A"/>
<path d="M92.6172 15.51C93.4303 15.51 94.1824 15.3067 94.8126 15.1034L94.3857 13.3756C94.0604 13.5179 93.5726 13.6399 93.1864 13.6399C92.0277 13.6399 91.5601 12.9487 91.5601 11.6071V5.93568H94.467V4.06553H91.5601V0.975728H89.6087L89.3444 4.06553L87.5962 4.1875V5.93568H89.2225V11.5868C89.2225 13.9448 90.0965 15.51 92.6172 15.51Z" fill="#5C6F7A"/>
<path d="M99.0625 15.51C100.404 15.51 101.603 14.8392 102.62 13.9651H102.701L102.884 15.2457H104.795V8.51729C104.795 5.54945 103.514 3.78094 100.729 3.78094C98.9405 3.78094 97.3753 4.51274 96.2166 5.24454L97.0907 6.83009C98.0461 6.22026 99.1438 5.69174 100.323 5.69174C101.969 5.69174 102.437 6.83009 102.457 8.13106C97.8022 8.63925 95.7694 9.87924 95.7694 12.2779C95.7694 14.2497 97.1313 15.51 99.0625 15.51ZM99.7739 13.6602C98.7779 13.6602 98.0258 13.213 98.0258 12.1153C98.0258 10.855 99.1438 10.0012 102.457 9.61498V12.3592C101.542 13.1926 100.75 13.6602 99.7739 13.6602Z" fill="#5C6F7A"/>
<path d="M111.535 15.51C112.348 15.51 113.101 15.3067 113.731 15.1034L113.304 13.3756C112.979 13.5179 112.491 13.6399 112.105 13.6399C110.946 13.6399 110.478 12.9487 110.478 11.6071V5.93568H113.385V4.06553H110.478V0.975728H108.527L108.263 4.06553L106.514 4.1875V5.93568H108.141V11.5868C108.141 13.9448 109.015 15.51 111.535 15.51Z" fill="#5C6F7A"/>
<path d="M118.645 15.51C121.409 15.51 122.893 13.9854 122.893 12.1153C122.893 10.0012 121.165 9.31007 119.6 8.72056C118.381 8.27336 117.283 7.90746 117.283 6.95206C117.283 6.17961 117.852 5.56978 119.092 5.56978C120.007 5.56978 120.8 5.97633 121.572 6.54551L122.67 5.10224C121.775 4.39077 120.535 3.78094 119.051 3.78094C116.571 3.78094 115.067 5.18355 115.067 7.0537C115.067 8.94417 116.714 9.73695 118.218 10.3061C119.417 10.7737 120.678 11.2209 120.678 12.2372C120.678 13.091 120.047 13.7415 118.706 13.7415C117.506 13.7415 116.531 13.2333 115.535 12.4609L114.437 13.9651C115.535 14.8595 117.1 15.51 118.645 15.51Z" fill="#5C6F7A"/>
</g>
<defs>
<linearGradient id="paint0_linear_1628_22159" x1="51.5112" y1="-23.7935" x2="14.9112" y2="38.4065" gradientUnits="userSpaceOnUse">
<stop stop-color="white" stop-opacity="0.6"/>
<stop offset="1" stop-color="white" stop-opacity="0"/>
</linearGradient>
<clipPath id="clip0_1628_22159">
<rect width="122.893" height="15.51" fill="white"/>
</clipPath>
</defs>
</svg>
